Coordinates
version=1
nRows=9
nColumns=24
inDegrees=yes

Units are S.I. units (second, meters, Newtons, ...)
Angles are in degrees.

endheader
time	pelvis_tilt	pelvis_list	pelvis_rotation	pelvis_tx	pelvis_ty	pelvis_tz	hip_flexion_r	hip_adduction_r	hip_rotation_r	knee_angle_r	ankle_angle_r	subtalar_angle_r	mtp_angle_r	hip_flexion_l	hip_adduction_l	hip_rotation_l	knee_angle_l	ankle_angle_l	subtalar_angle_l	mtp_angle_l	lumbar_extension	lumbar_bending	lumbar_rotation
      4.44000000	      0.93616814	      4.13775693	     -0.70924345	     -1.63644363	      1.02914418	      0.01419433	     20.50225254	      1.06626827	     -8.39134542	     -8.47431822	      4.05739315	     -6.52855937	      0.00000000	    -23.68224936	      7.12250732	     -4.23486374	    -13.20454639	     -6.66704574	     -3.46981536	      0.00000000	    -13.23352760	     -3.85733089	    -23.63123768
      4.45000000	      1.07484337	      3.79728963	     -0.37172886	     -1.61635456	      1.02857555	      0.01570483	     20.29020984	      1.63362301	     -6.53641592	    -10.24034717	      3.08395520	     -8.67177554	      0.00000000	    -22.62500422	      5.92009680	     -6.53227258	    -16.87851234	     -8.91262996	     -1.25965283	      0.00000000	    -12.98638667	     -3.62189524	    -23.61479701
      4.46000000	      1.12794413	      3.37256045	     -0.13774085	     -1.59674384	      1.02822607	      0.01736169	     20.27312201	      2.32641871	     -4.74392974	    -12.22439358	      2.47284319	    -10.90611167	      0.00000000	    -21.28869558	      4.60528457	     -8.36209852	    -20.77426888	    -11.61481820	     -0.09314551	      0.00000000	    -12.72392958	     -3.31944201	    -23.39354650
      4.47000000	      1.16322287	      2.86901617	     -0.03377577	     -1.57762534	      1.02814169	      0.01907877	     20.37198474	      3.10877460	     -3.34782428	    -14.42096204	      2.66591048	    -12.66656188	      0.00000000	    -19.74529757	      3.25579805	     -9.65943392	    -24.86884083	    -14.51190348	      0.00875533	      0.00000000	    -12.52912160	     -2.93809966	    -22.89051129
      4.48000000	      1.30048940	      2.24893087	      0.00448997	     -1.55902691	      1.02843488	      0.02072364	     20.33737395	      3.97670798	     -2.47283161	    -16.59386163	      3.55673203	    -13.73818532	      0.00000000	    -18.09700570	      1.84125758	    -10.48644176	    -29.18469995	    -17.25532027	     -0.97794668	      0.00000000	    -12.56355484	     -2.40999923	    -22.29272134
      4.49000000	      1.39862289	      1.54523165	      0.03005434	     -1.54093415	      1.02891458	      0.02223123	     20.19787081	      4.87148052	     -2.08744410	    -18.48913879	      4.79419568	    -14.35372062	      0.00000000	    -16.19317713	      0.41439070	    -10.84744431	    -33.68604656	    -19.66449406	     -2.84156601	      0.00000000	    -12.64636658	     -1.77006614	    -21.61587041
      4.50000000	      1.39769368	      0.76172828	      0.13573659	     -1.52331345	      1.02953473	      0.02350143	     19.91563754	      5.74358582	     -2.23373207	    -19.89826164	      6.32097798	    -14.37507556	      0.00000000	    -13.99300878	     -1.01033189	    -10.73135981	    -38.26506716	    -21.69727954	     -5.62506896	      0.00000000	    -12.69487667	     -1.01823239	    -20.99296937
      4.51000000	      1.27873983	     -0.13994097	      0.33652219	     -1.50608924	      1.03028695	      0.02452705	     19.46918927	      6.60910147	     -2.97506622	    -20.72431096	      8.12732709	    -13.57191601	      0.00000000	    -11.52419864	     -2.46591672	    -10.25865227	    -42.78329079	    -23.13467940	     -9.03143818	      0.00000000	    -12.66177299	     -0.10441658	    -20.42282090
      4.52000000	      1.05779670	     -1.10852617	      0.71086399	     -1.48916208	      1.03128768	      0.02533093	     18.78497478	      7.46793284	     -4.00235466	    -20.84564961	      9.66103464	    -12.70450126	      0.00000000	     -8.85649827	     -3.89290872	     -9.38139844	    -47.04312485	    -24.07766698	    -12.88297990	      0.00000000	    -12.53252908	      0.90140393	    -19.99803169
